<svg width="167" height="50" viewBox="0 0 167 50" fill="none" xmlns="http://www.w3.org/2000/svg">
<path fill-rule="evenodd" clip-rule="evenodd" d="M0 0H167V50H0V0ZM0.994048 0.980392V49.0196H166.006V0.980392H0.994048Z" fill="white"/>
<path fill-rule="evenodd" clip-rule="evenodd" d="M70 8H8V42H70V8ZM24.8991 31.1129C25.8197 31.7043 26.9349 32 28.2445 32C29.6838 32 30.8444 31.6465 31.7261 30.9394C32.6208 30.2195 33.0682 29.2489 33.0682 28.0275C33.0682 27.5905 33.0163 27.1983 32.9126 26.8512C32.8089 26.5041 32.6273 26.1956 32.368 25.9256C32.1216 25.6556 31.8882 25.4307 31.6678 25.2507C31.4473 25.0707 31.1167 24.8907 30.6758 24.7107C30.2479 24.5308 29.9108 24.4022 29.6644 24.3251C29.431 24.2351 29.055 24.1065 28.5363 23.9394C27.4989 23.618 26.7793 23.3159 26.3773 23.0331C25.9883 22.7374 25.7938 22.3388 25.7938 21.8375C25.7938 21.3232 25.9883 20.9183 26.3773 20.6226C26.7663 20.314 27.285 20.1598 27.9333 20.1598C29.2689 20.1598 30.222 20.7897 30.7925 22.0496L32.6792 20.9697C32.2383 20.0441 31.6094 19.3177 30.7925 18.7906C29.9756 18.2635 29.0225 18 27.9333 18C26.7274 18 25.6965 18.3535 24.8407 19.0606C23.9849 19.7548 23.557 20.6997 23.557 21.8953C23.557 22.4995 23.6672 23.0266 23.8877 23.4766C24.1081 23.9265 24.4388 24.3058 24.8796 24.6143C25.3335 24.91 25.7614 25.1414 26.1634 25.3085C26.5653 25.4757 27.0905 25.6556 27.7388 25.8485C28.8929 26.1956 29.6968 26.517 30.1507 26.8127C30.6045 27.0955 30.8314 27.5133 30.8314 28.0661C30.8314 28.5932 30.6175 29.0239 30.1896 29.3581C29.7746 29.6795 29.1457 29.8402 28.3029 29.8402C26.5913 29.8402 25.4631 29.0817 24.9185 27.5647L22.993 28.6832C23.356 29.7117 23.9914 30.5216 24.8991 31.1129ZM19.2368 18.2507H17V31.7493H19.2368V18.2507ZM44.606 31.7493L41.7274 26.832H39.0821V31.7493H36.8453V18.2507H42.2914C43.5103 18.2507 44.5412 18.6749 45.384 19.5234C46.2398 20.359 46.6677 21.3811 46.6677 22.5895C46.6677 23.4509 46.4149 24.2415 45.9092 24.9614C45.4164 25.6685 44.7681 26.1827 43.9641 26.5041L47.0567 31.7493H44.606ZM39.0821 20.3333V24.8457H42.2914C42.8879 24.8457 43.3936 24.6272 43.8085 24.1901C44.2235 23.753 44.4309 23.2195 44.4309 22.5895C44.4309 21.9596 44.2235 21.4261 43.8085 20.989C43.3936 20.5519 42.8879 20.3333 42.2914 20.3333H39.0821ZM58.6351 29.0303L59.5882 31.7493H62L57.0791 18.2507H54.395L49.4546 31.7493H51.8859L52.8389 29.0303H58.6351ZM57.896 26.9477H53.578L55.737 20.854L57.896 26.9477Z" fill="white"/>
<path d="M85.0579 32C83.0266 32 81.3425 31.3306 80.0055 29.9918C78.6685 28.653 78 26.9891 78 25C78 23.0109 78.6685 21.347 80.0055 20.0082C81.3425 18.6694 83.0266 18 85.0579 18C86.3049 18 87.4555 18.2933 88.5096 18.8798C89.5638 19.4663 90.3866 20.2568 90.978 21.2514L87.6226 23.1639C87.404 22.7304 87.0634 22.3862 86.6005 22.1311C86.1377 21.8761 85.6235 21.7486 85.0579 21.7486C84.1065 21.7486 83.3352 22.0546 82.7438 22.6667C82.1524 23.2787 81.8567 24.0565 81.8567 25C81.8567 25.9435 82.1524 26.7213 82.7438 27.3333C83.3352 27.9454 84.1065 28.2514 85.0579 28.2514C85.6364 28.2514 86.1506 28.1239 86.6005 27.8689C87.0634 27.6138 87.404 27.2632 87.6226 26.8169L90.978 28.7295C90.3866 29.7368 89.5638 30.5337 88.5096 31.1202C87.4555 31.7067 86.3049 32 85.0579 32Z" fill="white"/>
<path d="M104.838 29.9918C103.462 31.3306 101.772 32 99.7662 32C97.7607 32 96.0637 31.3306 94.6753 29.9918C93.2997 28.6403 92.612 26.9763 92.612 25C92.612 23.0237 93.2997 21.3661 94.6753 20.0273C96.0637 18.6758 97.7607 18 99.7662 18C101.772 18 103.462 18.6758 104.838 20.0273C106.226 21.3661 106.92 23.0237 106.92 25C106.92 26.9763 106.226 28.6403 104.838 29.9918ZM97.3943 27.3333C98.0243 27.9454 98.8149 28.2514 99.7662 28.2514C100.718 28.2514 101.502 27.9454 102.119 27.3333C102.749 26.7086 103.064 25.9308 103.064 25C103.064 24.0692 102.749 23.2978 102.119 22.6858C101.502 22.061 100.718 21.7486 99.7662 21.7486C98.8149 21.7486 98.0243 22.061 97.3943 22.6858C96.7772 23.2978 96.4687 24.0692 96.4687 25C96.4687 25.9308 96.7772 26.7086 97.3943 27.3333Z" fill="white"/>
<path d="M119.185 30.6803C118.169 31.5601 116.845 32 115.212 32C113.58 32 112.256 31.5601 111.24 30.6803C110.224 29.8005 109.716 28.6466 109.716 27.2186V18.306H113.573V26.7978C113.573 27.7923 114.12 28.2896 115.212 28.2896C116.305 28.2896 116.851 27.7923 116.851 26.7978V18.306H120.708V27.2186C120.708 28.6466 120.2 29.8005 119.185 30.6803Z" fill="white"/>
<path d="M130.955 31.6749L128.815 27.4672H127.851V31.6749H123.994V18.2869H129.393C130.872 18.2869 132.093 18.7204 133.057 19.5874C134.022 20.4417 134.504 21.5765 134.504 22.9918C134.504 23.7823 134.317 24.4964 133.944 25.1339C133.584 25.7714 133.077 26.2878 132.421 26.6831L135.082 31.6749H130.955ZM127.851 21.806V24.2923H129.316C129.728 24.3051 130.049 24.2031 130.28 23.9863C130.525 23.7696 130.647 23.4636 130.647 23.0683C130.647 22.673 130.525 22.367 130.28 22.1503C130.049 21.9208 129.728 21.806 129.316 21.806H127.851Z" fill="white"/>
<path d="M142.26 32C140.795 32 139.573 31.7004 138.596 31.1011C137.619 30.4891 136.964 29.6667 136.629 28.6339L139.927 26.7404C140.377 27.8752 141.187 28.4426 142.357 28.4426C143.231 28.4426 143.668 28.2131 143.668 27.7541C143.668 27.6266 143.636 27.5118 143.572 27.4098C143.507 27.3078 143.385 27.2186 143.205 27.1421C143.025 27.0656 142.864 27.0082 142.723 26.9699C142.594 26.9189 142.363 26.8488 142.029 26.7596C141.695 26.6703 141.444 26.6002 141.277 26.5492C138.59 25.7459 137.246 24.3115 137.246 22.2459C137.246 21.0219 137.69 20.0082 138.577 19.2049C139.477 18.4016 140.653 18 142.106 18C143.25 18 144.272 18.2678 145.172 18.8033C146.085 19.3388 146.753 20.1102 147.178 21.1175L143.976 22.9727C143.604 22.0291 142.987 21.5574 142.125 21.5574C141.791 21.5574 141.534 21.6275 141.354 21.7678C141.187 21.8953 141.103 22.061 141.103 22.265C141.103 22.5455 141.251 22.7623 141.547 22.9153C141.855 23.0683 142.44 23.2659 143.302 23.5082C143.944 23.6995 144.471 23.8843 144.883 24.0628C145.294 24.2286 145.725 24.4709 146.175 24.7896C146.625 25.0956 146.959 25.4973 147.178 25.9945C147.409 26.4791 147.525 27.0528 147.525 27.7158C147.525 29.0801 147.049 30.1384 146.098 30.8907C145.159 31.6302 143.88 32 142.26 32Z" fill="white"/>
<path d="M153.986 28.1749H159V31.694H150.129V18.306H158.904V21.7869H153.986V23.2404H158.421V26.6831H153.986V28.1749Z" fill="white"/>
</svg>
