<svg width="32" height="32" viewBox="0 0 32 32" fill="none" xmlns="http://www.w3.org/2000/svg">
<g id="phone">
<path id="Vector" d="M27.2936 21.6175V25.0179C27.2949 25.3336 27.2301 25.6461 27.1034 25.9353C26.9767 26.2246 26.7908 26.4842 26.5577 26.6976C26.3246 26.911 26.0495 27.0735 25.7498 27.1746C25.4502 27.2758 25.1327 27.3133 24.8177 27.2849C21.3229 26.9059 17.9658 25.7141 15.0163 23.8051C12.2722 22.0648 9.94569 19.7429 8.20197 17.0042C6.28256 14.0472 5.08807 10.6805 4.71527 7.17697C4.68689 6.86352 4.72422 6.54762 4.82487 6.24936C4.92553 5.9511 5.08731 5.67702 5.29991 5.44458C5.51251 5.21214 5.77128 5.02643 6.05974 4.89926C6.3482 4.7721 6.66003 4.70628 6.97538 4.70598H10.3826C10.9337 4.70057 11.4681 4.89536 11.886 5.25406C12.3039 5.61275 12.5769 6.11087 12.654 6.65557C12.7978 7.74378 13.0645 8.81227 13.449 9.84065C13.6018 10.2463 13.6349 10.6873 13.5443 11.1111C13.4538 11.535 13.2433 11.9241 12.938 12.2323L11.4956 13.6718C13.1124 16.5095 15.4666 18.8591 18.31 20.4727L19.7523 19.0332C20.0611 18.7284 20.451 18.5184 20.8757 18.428C21.3004 18.3376 21.7422 18.3706 22.1487 18.5231C23.1791 18.9068 24.2498 19.173 25.3401 19.3165C25.8918 19.3942 26.3957 19.6716 26.7559 20.0958C27.116 20.5201 27.3074 21.0616 27.2936 21.6175Z" fill="#3A3A3A"/>
</g>
</svg>
