<svg width="32" height="32" viewBox="0 0 32 32" fill="none" xmlns="http://www.w3.org/2000/svg">
<g id="phone">
<path id="Vector" d="M27.2936 21.6177V25.0181C27.2949 25.3338 27.2301 25.6463 27.1034 25.9355C26.9767 26.2247 26.7908 26.4844 26.5577 26.6978C26.3246 26.9112 26.0495 27.0737 25.7498 27.1748C25.4502 27.2759 25.1327 27.3135 24.8177 27.2851C21.3229 26.9061 17.9658 25.7143 15.0163 23.8053C12.2722 22.065 9.94569 19.7431 8.20197 17.0044C6.28256 14.0474 5.08807 10.6807 4.71527 7.17715C4.68689 6.86371 4.72422 6.5478 4.82487 6.24954C4.92553 5.95128 5.08731 5.6772 5.29991 5.44476C5.51251 5.21232 5.77128 5.02661 6.05974 4.89945C6.3482 4.77229 6.66003 4.70646 6.97538 4.70616H10.3826C10.9337 4.70075 11.4681 4.89554 11.886 5.25424C12.3039 5.61293 12.5769 6.11105 12.654 6.65575C12.7978 7.74397 13.0645 8.81245 13.449 9.84083C13.6018 10.2465 13.6349 10.6874 13.5443 11.1113C13.4538 11.5352 13.2433 11.9243 12.938 12.2325L11.4956 13.672C13.1124 16.5097 15.4666 18.8593 18.31 20.4729L19.7523 19.0334C20.0611 18.7286 20.451 18.5186 20.8757 18.4282C21.3004 18.3378 21.7422 18.3708 22.1487 18.5233C23.1791 18.907 24.2498 19.1732 25.3401 19.3167C25.8918 19.3944 26.3957 19.6717 26.7559 20.096C27.116 20.5202 27.3074 21.0618 27.2936 21.6177Z" fill="white"/>
</g>
</svg>
