<svg width="50" height="44" viewBox="0 0 50 44" fill="none" xmlns="http://www.w3.org/2000/svg">
<rect width="50" height="44" fill="#D0D0D0"/>
<g id="desktop" clip-path="url(#clip0_0_1)">
<rect width="1440" height="10608" transform="translate(-837 -925)" fill="white"/>
<g id="quote">
<g id="quote_2">
<path id="&#208;&#175; &#208;&#183;&#208;&#176;&#208;&#189;&#208;&#184;&#208;&#188;&#208;&#176;&#209;&#142;&#209;&#129;&#209;&#140; &#208;&#188;&#208;&#176;&#209;&#128;&#208;&#186;&#208;&#181;&#209;&#130;&#208;&#184;&#208;&#189;&#208;&#179;&#208;&#190;&#208;&#188; 13 &#208;&#187;&#208;&#181;&#209;&#130;. &#208;&#151;&#208;&#176; &#209;&#141;&#209;&#130;&#208;&#190; &#208;&#178;&#209;&#128;&#208;&#181;&#208;&#188;&#209;&#143; &#209;&#143; &#208;&#191;&#209;&#128;&#208;&#190;&#209;&#136;&#208;&#181;&#208;&#187; &#208;&#180;&#208;&#181;&#209;&#129;&#209;&#143;&#209;&#130;&#208;&#186;&#208;&#184;, &#208;&#181;&#209;&#129;&#208;&#187;&#208;&#184; &#208;&#189;&#208;&#181; &#209;&#129;&#208;&#190;&#209;&#130;&#208;&#189;&#208;&#184; &#208;&#191;&#209;&#128;&#208;&#190;&#209;&#132;&#208;&#181;&#209;&#129;&#209;&#129;&#208;&#184;&#208;&#190;&#208;&#189;&#208;&#176;&#208;&#187;&#209;&#140;&#208;&#189;&#209;&#139;&#209;&#133; &#208;&#186;&#209;&#131;&#209;&#128;&#209;&#129;&#208;&#190;&#208;&#178;. &#208;&#159;&#208;&#190;&#208;&#188;&#208;&#190;&#208;&#179;&#208;&#187;&#208;&#184; &#208;&#187;&#208;&#184; &#208;&#188;&#208;&#189;&#208;&#181; &#209;&#141;&#209;&#130;&#208;&#184; &#208;&#183;&#208;&#189;&#208;&#176;&#208;&#189;&#208;&#184;&#209;&#143;? &#208;&#157;&#208;&#176;&#208;&#191;&#209;&#128;&#209;&#143;&#208;&#188;&#209;&#131;&#209;&#142; &#226;&#128;&#148; &#208;&#191;&#208;&#190;&#209;&#135;&#209;&#130;&#208;&#184; &#208;&#189;&#208;&#184;&#208;&#186;&#208;&#190;&#208;&#179;&#208;&#180;&#208;&#176;." d="M80.8 2V16H79.4V10.4H76.04L72.2 16H70.6L74.5 10.34C73.5 10.1667 72.6667 9.69333 72 8.92C71.3333 8.13333 71 7.22667 71 6.2C71 5.04 71.4067 4.05333 72.22 3.24C73.0467 2.41333 74.04 2 75.2 2H80.8ZM75.2 9.08H79.4V3.32H75.2C74.4267 3.32 73.7667 3.6 73.22 4.16C72.6733 4.72 72.4 5.4 72.4 6.2C72.4 6.98667 72.6733 7.66667 73.22 8.24C73.7667 8.8 74.4267 9.08 75.2 9.08ZM93.9623 10.86C95.1223 11.3 95.7023 12.1 95.7023 13.26C95.7023 14.0867 95.3757 14.7933 94.7223 15.38C94.0823 15.9533 93.1623 16.24 91.9623 16.24C89.949 16.24 88.629 15.44 88.0023 13.84L89.1223 13.18C89.5357 14.3667 90.4823 14.96 91.9623 14.96C92.7357 14.96 93.329 14.7933 93.7423 14.46C94.169 14.1267 94.3823 13.7 94.3823 13.18C94.3823 12.7133 94.209 12.3333 93.8623 12.04C93.5157 11.7467 93.049 11.6 92.4623 11.6H91.0023V10.32H92.0623C92.6357 10.32 93.0823 10.18 93.4023 9.9C93.7357 9.60667 93.9023 9.20667 93.9023 8.7C93.9023 8.22 93.709 7.82667 93.3223 7.52C92.9357 7.2 92.4157 7.04 91.7623 7.04C90.509 7.04 89.6757 7.54 89.2623 8.54L88.1623 7.9C88.829 6.47333 90.029 5.76 91.7623 5.76C92.8157 5.76 93.6557 6.04 94.2823 6.6C94.909 7.14667 95.2223 7.82 95.2223 8.62C95.2223 9.64667 94.8023 10.3933 93.9623 10.86ZM106.309 6H107.629V16H106.309V14.04C105.389 15.5067 104.042 16.24 102.269 16.24C100.842 16.24 99.6219 15.7333 98.6086 14.72C97.6086 13.7067 97.1086 12.4667 97.1086 11C97.1086 9.53333 97.6086 8.29333 98.6086 7.28C99.6219 6.26667 100.842 5.76 102.269 5.76C104.042 5.76 105.389 6.49333 106.309 7.96V6ZM99.5686 13.82C100.329 14.58 101.262 14.96 102.369 14.96C103.475 14.96 104.409 14.58 105.169 13.82C105.929 13.0467 106.309 12.1067 106.309 11C106.309 9.89333 105.929 8.96 105.169 8.2C104.409 7.42667 103.475 7.04 102.369 7.04C101.262 7.04 100.329 7.42667 99.5686 8.2C98.8086 8.96 98.4286 9.89333 98.4286 11C98.4286 12.1067 98.8086 13.0467 99.5686 13.82ZM117.503 6H118.823V16H117.503V11.64H111.743V16H110.423V6H111.743V10.36H117.503V6ZM128.895 6H130.015V16H128.695V8.3L122.735 16H121.615V6H122.935V13.7L128.895 6ZM142.606 6V16H141.286V8.02L137.786 13.7H137.626L134.126 8.02V16H132.806V6H134.326L137.706 11.48L141.086 6H142.606ZM154.004 6H155.324V16H154.004V14.04C153.084 15.5067 151.737 16.24 149.964 16.24C148.537 16.24 147.317 15.7333 146.304 14.72C145.304 13.7067 144.804 12.4667 144.804 11C144.804 9.53333 145.304 8.29333 146.304 7.28C147.317 6.26667 148.537 5.76 149.964 5.76C151.737 5.76 153.084 6.49333 154.004 7.96V6ZM147.264 13.82C148.024 14.58 148.957 14.96 150.064 14.96C151.171 14.96 152.104 14.58 152.864 13.82C153.624 13.0467 154.004 12.1067 154.004 11C154.004 9.89333 153.624 8.96 152.864 8.2C152.104 7.42667 151.171 7.04 150.064 7.04C148.957 7.04 148.024 7.42667 147.264 8.2C146.504 8.96 146.124 9.89333 146.124 11C146.124 12.1067 146.504 13.0467 147.264 13.82ZM166.659 5.76C168.125 5.76 169.365 6.26667 170.379 7.28C171.405 8.28 171.919 9.52 171.919 11C171.919 12.48 171.405 13.7267 170.379 14.74C169.365 15.74 168.125 16.24 166.659 16.24C165.312 16.24 164.152 15.8067 163.179 14.94C162.219 14.06 161.665 12.96 161.519 11.64H159.439V16H158.119V6H159.439V10.36H161.519C161.665 9.04 162.219 7.94667 163.179 7.08C164.152 6.2 165.312 5.76 166.659 5.76ZM163.859 13.82C164.619 14.58 165.552 14.96 166.659 14.96C167.765 14.96 168.699 14.58 169.459 13.82C170.219 13.0467 170.599 12.1067 170.599 11C170.599 9.89333 170.219 8.96 169.459 8.2C168.699 7.42667 167.765 7.04 166.659 7.04C165.552 7.04 164.619 7.42667 163.859 8.2C163.099 8.96 162.719 9.89333 162.719 11C162.719 12.1067 163.099 13.0467 163.859 13.82ZM178.775 16.24C177.268 16.24 176.015 15.74 175.015 14.74C174.015 13.7267 173.515 12.48 173.515 11C173.515 9.52 174.015 8.28 175.015 7.28C176.015 6.26667 177.268 5.76 178.775 5.76C179.762 5.76 180.648 6 181.435 6.48C182.222 6.94667 182.795 7.58 183.155 8.38L182.075 9C181.808 8.4 181.375 7.92667 180.775 7.58C180.188 7.22 179.522 7.04 178.775 7.04C177.668 7.04 176.735 7.42667 175.975 8.2C175.215 8.96 174.835 9.89333 174.835 11C174.835 12.1067 175.215 13.0467 175.975 13.82C176.735 14.58 177.668 14.96 178.775 14.96C179.522 14.96 180.188 14.7867 180.775 14.44C181.362 14.08 181.822 13.6 182.155 13L183.255 13.64C182.842 14.44 182.235 15.0733 181.435 15.54C180.635 16.0067 179.748 16.24 178.775 16.24ZM189.21 9.8C190.143 9.8 190.93 10.0933 191.57 10.68C192.223 11.2533 192.55 11.9933 192.55 12.9C192.55 13.8067 192.223 14.5533 191.57 15.14C190.93 15.7133 190.143 16 189.21 16H185.15V6H186.47V9.8H189.21ZM189.21 14.72C189.77 14.72 190.243 14.5533 190.63 14.22C191.03 13.8867 191.23 13.4467 191.23 12.9C191.23 12.3533 191.03 11.9133 190.63 11.58C190.243 11.2467 189.77 11.08 189.21 11.08H186.47V14.72H189.21ZM209.345 6V16H208.025V8.02L204.525 13.7H204.365L200.865 8.02V16H199.545V6H201.065L204.445 11.48L207.825 6H209.345ZM220.742 6H222.062V16H220.742V14.04C219.822 15.5067 218.476 16.24 216.702 16.24C215.276 16.24 214.056 15.7333 213.042 14.72C212.042 13.7067 211.542 12.4667 211.542 11C211.542 9.53333 212.042 8.29333 213.042 7.28C214.056 6.26667 215.276 5.76 216.702 5.76C218.476 5.76 219.822 6.49333 220.742 7.96V6ZM214.002 13.82C214.762 14.58 215.696 14.96 216.802 14.96C217.909 14.96 218.842 14.58 219.602 13.82C220.362 13.0467 220.742 12.1067 220.742 11C220.742 9.89333 220.362 8.96 219.602 8.2C218.842 7.42667 217.909 7.04 216.802 7.04C215.696 7.04 214.762 7.42667 214.002 8.2C213.242 8.96 212.862 9.89333 212.862 11C212.862 12.1067 213.242 13.0467 214.002 13.82ZM230.217 5.76C231.644 5.76 232.857 6.26667 233.857 7.28C234.87 8.29333 235.377 9.53333 235.377 11C235.377 12.4667 234.87 13.7067 233.857 14.72C232.857 15.7333 231.644 16.24 230.217 16.24C228.444 16.24 227.097 15.5067 226.177 14.04V20H224.857V6H226.177V7.96C227.097 6.49333 228.444 5.76 230.217 5.76ZM227.317 13.82C228.077 14.58 229.01 14.96 230.117 14.96C231.224 14.96 232.157 14.58 232.917 13.82C233.677 13.0467 234.057 12.1067 234.057 11C234.057 9.89333 233.677 8.96 232.917 8.2C232.157 7.42667 231.224 7.04 230.117 7.04C229.01 7.04 228.077 7.42667 227.317 8.2C226.557 8.96 226.177 9.89333 226.177 11C226.177 12.1067 226.557 13.0467 227.317 13.82ZM245.652 16H243.892L238.892 11.18V16H237.572V6H238.892V10.42L243.652 6H245.452L240.292 10.8L245.652 16ZM251.079 5.76C252.559 5.76 253.752 6.28667 254.659 7.34C255.579 8.38 256.039 9.61333 256.039 11.04C256.039 11.1867 256.025 11.3933 255.999 11.66H247.219C247.352 12.6733 247.779 13.48 248.499 14.08C249.232 14.6667 250.132 14.96 251.199 14.96C251.959 14.96 252.612 14.8067 253.159 14.5C253.719 14.18 254.139 13.7667 254.419 13.26L255.579 13.94C255.139 14.6467 254.539 15.2067 253.779 15.62C253.019 16.0333 252.152 16.24 251.179 16.24C249.605 16.24 248.325 15.7467 247.339 14.76C246.352 13.7733 245.859 12.52 245.859 11C245.859 9.50667 246.345 8.26 247.319 7.26C248.292 6.26 249.545 5.76 251.079 5.76ZM251.079 7.04C250.039 7.04 249.165 7.35333 248.459 7.98C247.765 8.59333 247.352 9.39333 247.219 10.38H254.679C254.545 9.32667 254.139 8.50667 253.459 7.92C252.779 7.33333 251.985 7.04 251.079 7.04ZM264.948 6V7.28H261.408V16H260.088V7.28H256.548V6H264.948ZM273.836 6H274.956V16H273.636V8.3L267.676 16H266.556V6H267.876V13.7L273.836 6ZM284.828 6H286.148V16H284.828V11.64H279.068V16H277.748V6H279.068V10.36H284.828V6ZM295.339 6V7.28H290.259V16H288.939V6H295.339ZM304.936 14.74C303.923 15.74 302.683 16.24 301.216 16.24C299.75 16.24 298.503 15.74 297.476 14.74C296.463 13.7267 295.956 12.48 295.956 11C295.956 9.52 296.463 8.28 297.476 7.28C298.503 6.26667 299.75 5.76 301.216 5.76C302.683 5.76 303.923 6.26667 304.936 7.28C305.963 8.28 306.476 9.52 306.476 11C306.476 12.48 305.963 13.7267 304.936 14.74ZM298.416 13.82C299.176 14.58 300.11 14.96 301.216 14.96C302.323 14.96 303.256 14.58 304.016 13.82C304.776 13.0467 305.156 12.1067 305.156 11C305.156 9.89333 304.776 8.96 304.016 8.2C303.256 7.42667 302.323 7.04 301.216 7.04C300.11 7.04 299.176 7.42667 298.416 8.2C297.656 8.96 297.276 9.89333 297.276 11C297.276 12.1067 297.656 13.0467 298.416 13.82ZM318.485 6V16H317.165V8.02L313.665 13.7H313.505L310.005 8.02V16H308.685V6H310.205L313.585 11.48L316.965 6H318.485ZM328.883 2H330.083V16H328.683V3.54L325.543 4.48L325.183 3.28L328.883 2ZM337.62 7.82C338.74 7.96667 339.66 8.4 340.38 9.12C341.113 9.82667 341.48 10.7667 341.48 11.94C341.48 13.2733 341.02 14.3267 340.1 15.1C339.193 15.86 338.086 16.24 336.78 16.24C335.74 16.24 334.813 16 334 15.52C333.186 15.04 332.613 14.3533 332.28 13.46L333.44 12.78C333.666 13.4733 334.073 14 334.66 14.36C335.246 14.7067 335.953 14.88 336.78 14.88C337.74 14.88 338.526 14.6267 339.14 14.12C339.766 13.6 340.08 12.8733 340.08 11.94C340.08 11.0067 339.766 10.2867 339.14 9.78C338.526 9.26 337.74 9 336.78 9V8.98L336.76 9H336.38L335.78 8.08L339.26 3.32H332.68V2H340.88V3.32L337.62 7.82ZM356.885 6V16H355.565V7.28H351.045V11.74C351.045 13.4067 350.725 14.5533 350.085 15.18C349.458 15.8067 348.592 16.08 347.485 16V14.76C348.245 14.84 348.805 14.66 349.165 14.22C349.538 13.78 349.725 12.9533 349.725 11.74V6H356.885ZM364.301 5.76C365.781 5.76 366.975 6.28667 367.881 7.34C368.801 8.38 369.261 9.61333 369.261 11.04C369.261 11.1867 369.248 11.3933 369.221 11.66H360.441C360.575 12.6733 361.001 13.48 361.721 14.08C362.455 14.6667 363.355 14.96 364.421 14.96C365.181 14.96 365.835 14.8067 366.381 14.5C366.941 14.18 367.361 13.7667 367.641 13.26L368.801 13.94C368.361 14.6467 367.761 15.2067 367.001 15.62C366.241 16.0333 365.375 16.24 364.401 16.24C362.828 16.24 361.548 15.7467 360.561 14.76C359.575 13.7733 359.081 12.52 359.081 11C359.081 9.50667 359.568 8.26 360.541 7.26C361.515 6.26 362.768 5.76 364.301 5.76ZM364.301 7.04C363.261 7.04 362.388 7.35333 361.681 7.98C360.988 8.59333 360.575 9.39333 360.441 10.38H367.901C367.768 9.32667 367.361 8.50667 366.681 7.92C366.001 7.33333 365.208 7.04 364.301 7.04ZM378.17 6V7.28H374.63V16H373.31V7.28H369.77V6H378.17ZM380.053 15.88C379.839 16.0933 379.579 16.2 379.273 16.2C378.966 16.2 378.706 16.0933 378.493 15.88C378.279 15.6667 378.173 15.4067 378.173 15.1C378.173 14.7933 378.279 14.5333 378.493 14.32C378.706 14.1067 378.966 14 379.273 14C379.579 14 379.839 14.1067 380.053 14.32C380.266 14.5333 380.373 14.7933 380.373 15.1C380.373 15.4067 380.266 15.6667 380.053 15.88ZM394.642 8.76C395.415 9.05333 396.015 9.5 396.442 10.1C396.869 10.7 397.082 11.4067 397.082 12.22C397.082 13.3933 396.642 14.36 395.762 15.12C394.895 15.8667 393.722 16.24 392.242 16.24C390.909 16.24 389.842 15.94 389.042 15.34C388.242 14.74 387.689 13.9867 387.382 13.08L388.582 12.4C388.755 13.1067 389.129 13.7067 389.702 14.2C390.289 14.68 391.135 14.92 392.242 14.92C393.335 14.92 394.182 14.6733 394.782 14.18C395.382 13.6733 395.682 13.02 395.682 12.22C395.682 11.42 395.402 10.7733 394.842 10.28C394.295 9.77333 393.535 9.52 392.562 9.52H390.962V8.2H392.062C393.009 8.2 393.762 7.96 394.322 7.48C394.882 7 395.162 6.38 395.162 5.62C395.162 4.87333 394.889 4.26667 394.342 3.8C393.809 3.32 393.075 3.08 392.142 3.08C390.422 3.08 389.289 3.81333 388.742 5.28L387.582 4.6C387.929 3.74667 388.475 3.06 389.222 2.54C389.982 2.02 390.955 1.76 392.142 1.76C393.462 1.76 394.529 2.13333 395.342 2.88C396.155 3.61333 396.562 4.53333 396.562 5.64C396.562 7.04 395.922 8.08 394.642 8.76ZM407.891 6H409.211V16H407.891V14.04C406.971 15.5067 405.624 16.24 403.851 16.24C402.424 16.24 401.204 15.7333 400.191 14.72C399.191 13.7067 398.691 12.4667 398.691 11C398.691 9.53333 399.191 8.29333 400.191 7.28C401.204 6.26667 402.424 5.76 403.851 5.76C405.624 5.76 406.971 6.49333 407.891 7.96V6ZM401.151 13.82C401.911 14.58 402.844 14.96 403.951 14.96C405.057 14.96 405.991 14.58 406.751 13.82C407.511 13.0467 407.891 12.1067 407.891 11C407.891 9.89333 407.511 8.96 406.751 8.2C405.991 7.42667 405.057 7.04 403.951 7.04C402.844 7.04 401.911 7.42667 401.151 8.2C400.391 8.96 400.011 9.89333 400.011 11C400.011 12.1067 400.391 13.0467 401.151 13.82ZM420.565 5.76C422.072 5.76 423.285 6.26 424.205 7.26C425.125 8.24667 425.585 9.49333 425.585 11C425.585 12.5067 425.119 13.76 424.185 14.76C423.265 15.7467 422.045 16.24 420.525 16.24C419.445 16.24 418.505 16.0067 417.705 15.54C416.919 15.06 416.352 14.4133 416.005 13.6L417.145 12.94C417.372 13.5533 417.779 14.0467 418.365 14.42C418.952 14.78 419.672 14.96 420.525 14.96C421.525 14.96 422.359 14.6533 423.025 14.04C423.692 13.4133 424.092 12.6133 424.225 11.64H419.245V10.36H424.225C424.105 9.38667 423.712 8.59333 423.045 7.98C422.392 7.35333 421.565 7.04 420.565 7.04C419.805 7.04 419.132 7.22 418.545 7.58C417.959 7.94 417.525 8.42667 417.245 9.04L416.085 8.38C416.485 7.56667 417.079 6.92667 417.865 6.46C418.665 5.99333 419.565 5.76 420.565 5.76ZM434.596 6V7.28H431.056V16H429.736V7.28H426.196V6H434.596ZM444.194 14.74C443.181 15.74 441.941 16.24 440.474 16.24C439.007 16.24 437.761 15.74 436.734 14.74C435.721 13.7267 435.214 12.48 435.214 11C435.214 9.52 435.721 8.28 436.734 7.28C437.761 6.26667 439.007 5.76 440.474 5.76C441.941 5.76 443.181 6.26667 444.194 7.28C445.221 8.28 445.734 9.52 445.734 11C445.734 12.48 445.221 13.7267 444.194 14.74ZM437.674 13.82C438.434 14.58 439.367 14.96 440.474 14.96C441.581 14.96 442.514 14.58 443.274 13.82C444.034 13.0467 444.414 12.1067 444.414 11C444.414 9.89333 444.034 8.96 443.274 8.2C442.514 7.42667 441.581 7.04 440.474 7.04C439.367 7.04 438.434 7.42667 437.674 8.2C436.914 8.96 436.534 9.89333 436.534 11C436.534 12.1067 436.914 13.0467 437.674 13.82ZM77.76 38.86C78.8533 39.26 79.4 40.04 79.4 41.2C79.4 42.0133 79.1267 42.6867 78.58 43.22C78.0467 43.74 77.2733 44 76.26 44H71.4V34H75.86C76.8333 34 77.5867 34.2533 78.12 34.76C78.6533 35.2533 78.92 35.8933 78.92 36.68C78.92 37.68 78.5333 38.4067 77.76 38.86ZM75.86 35.28H72.72V38.32H75.86C77.02 38.32 77.6 37.8 77.6 36.76C77.6 36.2933 77.4467 35.9333 77.14 35.68C76.8467 35.4133 76.42 35.28 75.86 35.28ZM76.26 42.72C76.8467 42.72 77.2933 42.58 77.6 42.3C77.92 42.02 78.08 41.6267 78.08 41.12C78.08 40.6533 77.92 40.2867 77.6 40.02C77.2933 39.74 76.8467 39.6 76.26 39.6H72.72V42.72H76.26ZM86.76 33.76C88.1867 33.76 89.4 34.2667 90.4 35.28C91.4133 36.2933 91.92 37.5333 91.92 39C91.92 40.4667 91.4133 41.7067 90.4 42.72C89.4 43.7333 88.1867 44.24 86.76 44.24C84.9867 44.24 83.64 43.5067 82.72 42.04V48H81.4V34H82.72V35.96C83.64 34.4933 84.9867 33.76 86.76 33.76ZM83.86 41.82C84.62 42.58 85.5533 42.96 86.66 42.96C87.7667 42.96 88.7 42.58 89.46 41.82C90.22 41.0467 90.6 40.1067 90.6 39C90.6 37.8933 90.22 36.96 89.46 36.2C88.7 35.4267 87.7667 35.04 86.66 35.04C85.5533 35.04 84.62 35.4267 83.86 36.2C83.1 36.96 82.72 37.8933 82.72 39C82.72 40.1067 83.1 41.0467 83.86 41.82ZM98.7348 33.76C100.215 33.76 101.408 34.2867 102.315 35.34C103.235 36.38 103.695 37.6133 103.695 39.04C103.695 39.1867 103.682 39.3933 103.655 39.66H94.8748C95.0082 40.6733 95.4348 41.48 96.1548 42.08C96.8882 42.6667 97.7882 42.96 98.8548 42.96C99.6148 42.96 100.268 42.8067 100.815 42.5C101.375 42.18 101.795 41.7667 102.075 41.26L103.235 41.94C102.795 42.6467 102.195 43.2067 101.435 43.62C100.675 44.0333 99.8082 44.24 98.8348 44.24C97.2615 44.24 95.9815 43.7467 94.9948 42.76C94.0082 41.7733 93.5148 40.52 93.5148 39C93.5148 37.5067 94.0015 36.26 94.9748 35.26C95.9482 34.26 97.2015 33.76 98.7348 33.76ZM98.7348 35.04C97.6948 35.04 96.8215 35.3533 96.1148 35.98C95.4215 36.5933 95.0082 37.3933 94.8748 38.38H102.335C102.202 37.3267 101.795 36.5067 101.115 35.92C100.435 35.3333 99.6415 35.04 98.7348 35.04ZM115.595 34V44H114.275V36.02L110.775 41.7H110.615L107.115 36.02V44H105.795V34H107.315L110.695 39.48L114.075 34H115.595ZM125.592 34V44H124.272V40.16H122.552L119.472 44H117.792L120.952 40.12C120.152 40 119.492 39.6667 118.972 39.12C118.452 38.5733 118.192 37.9 118.192 37.1C118.192 36.1933 118.512 35.4533 119.152 34.88C119.806 34.2933 120.599 34 121.532 34H125.592ZM121.532 38.92H124.272V35.28H121.532C120.972 35.28 120.492 35.4467 120.092 35.78C119.706 36.1133 119.512 36.5533 119.512 37.1C119.512 37.6467 119.706 38.0867 120.092 38.42C120.492 38.7533 120.972 38.92 121.532 38.92ZM140.592 34V44H139.272V40.16H137.552L134.472 44H132.792L135.952 40.12C135.152 40 134.492 39.6667 133.972 39.12C133.452 38.5733 133.192 37.9 133.192 37.1C133.192 36.1933 133.512 35.4533 134.152 34.88C134.806 34.2933 135.599 34 136.532 34H140.592ZM136.532 38.92H139.272V35.28H136.532C135.972 35.28 135.492 35.4467 135.092 35.78C134.706 36.1133 134.512 36.5533 134.512 37.1C134.512 37.6467 134.706 38.0867 135.092 38.42C135.492 38.7533 135.972 38.92 136.532 38.92ZM156.792 34V44H155.472V35.28H149.712V44H148.392V34H156.792ZM164.944 33.76C166.37 33.76 167.584 34.2667 168.584 35.28C169.597 36.2933 170.104 37.5333 170.104 39C170.104 40.4667 169.597 41.7067 168.584 42.72C167.584 43.7333 166.37 44.24 164.944 44.24C163.17 44.24 161.824 43.5067 160.904 42.04V48H159.584V34H160.904V35.96C161.824 34.4933 163.17 33.76 164.944 33.76ZM162.044 41.82C162.804 42.58 163.737 42.96 164.844 42.96C165.95 42.96 166.884 42.58 167.644 41.82C168.404 41.0467 168.784 40.1067 168.784 39C168.784 37.8933 168.404 36.96 167.644 36.2C166.884 35.4267 165.95 35.04 164.844 35.04C163.737 35.04 162.804 35.4267 162.044 36.2C161.284 36.96 160.904 37.8933 160.904 39C160.904 40.1067 161.284 41.0467 162.044 41.82ZM180.678 42.74C179.665 43.74 178.425 44.24 176.958 44.24C175.492 44.24 174.245 43.74 173.218 42.74C172.205 41.7267 171.698 40.48 171.698 39C171.698 37.52 172.205 36.28 173.218 35.28C174.245 34.2667 175.492 33.76 176.958 33.76C178.425 33.76 179.665 34.2667 180.678 35.28C181.705 36.28 182.218 37.52 182.218 39C182.218 40.48 181.705 41.7267 180.678 42.74ZM174.158 41.82C174.918 42.58 175.852 42.96 176.958 42.96C178.065 42.96 178.998 42.58 179.758 41.82C180.518 41.0467 180.898 40.1067 180.898 39C180.898 37.8933 180.518 36.96 179.758 36.2C178.998 35.4267 178.065 35.04 176.958 35.04C175.852 35.04 174.918 35.4267 174.158 36.2C173.398 36.96 173.018 37.8933 173.018 39C173.018 40.1067 173.398 41.0467 174.158 41.82ZM196.507 34H197.827V44H184.427V34H185.747V42.72H190.467V34H191.787V42.72H196.507V34ZM205.239 33.76C206.719 33.76 207.912 34.2867 208.819 35.34C209.739 36.38 210.199 37.6133 210.199 39.04C210.199 39.1867 210.185 39.3933 210.159 39.66H201.379C201.512 40.6733 201.939 41.48 202.659 42.08C203.392 42.6667 204.292 42.96 205.359 42.96C206.119 42.96 206.772 42.8067 207.319 42.5C207.879 42.18 208.299 41.7667 208.579 41.26L209.739 41.94C209.299 42.6467 208.699 43.2067 207.939 43.62C207.179 44.0333 206.312 44.24 205.339 44.24C203.765 44.24 202.485 43.7467 201.499 42.76C200.512 41.7733 200.019 40.52 200.019 39C200.019 37.5067 200.505 36.26 201.479 35.26C202.452 34.26 203.705 33.76 205.239 33.76ZM205.239 35.04C204.199 35.04 203.325 35.3533 202.619 35.98C201.925 36.5933 201.512 37.3933 201.379 38.38H208.839C208.705 37.3267 208.299 36.5067 207.619 35.92C206.939 35.3333 206.145 35.04 205.239 35.04ZM220.108 34V44H218.788V35.28H214.268V39.74C214.268 41.4067 213.948 42.5533 213.308 43.18C212.681 43.8067 211.814 44.08 210.708 44V42.76C211.468 42.84 212.028 42.66 212.388 42.22C212.761 41.78 212.948 40.9533 212.948 39.74V34H220.108ZM236.304 42.72H237.704V46.68H236.384V44H228.224V46.68H226.904V42.72H228.124C228.804 41.8267 229.144 40.5667 229.144 38.94V34H236.304V42.72ZM229.724 42.72H234.984V35.28H230.464V38.94C230.464 40.4733 230.217 41.7333 229.724 42.72ZM243.93 33.76C245.41 33.76 246.603 34.2867 247.51 35.34C248.43 36.38 248.89 37.6133 248.89 39.04C248.89 39.1867 248.877 39.3933 248.85 39.66H240.07C240.203 40.6733 240.63 41.48 241.35 42.08C242.083 42.6667 242.983 42.96 244.05 42.96C244.81 42.96 245.463 42.8067 246.01 42.5C246.57 42.18 246.99 41.7667 247.27 41.26L248.43 41.94C247.99 42.6467 247.39 43.2067 246.63 43.62C245.87 44.0333 245.003 44.24 244.03 44.24C242.457 44.24 241.177 43.7467 240.19 42.76C239.203 41.7733 238.71 40.52 238.71 39C238.71 37.5067 239.197 36.26 240.17 35.26C241.143 34.26 242.397 33.76 243.93 33.76ZM243.93 35.04C242.89 35.04 242.017 35.3533 241.31 35.98C240.617 36.5933 240.203 37.3933 240.07 38.38H247.53C247.397 37.3267 246.99 36.5067 246.31 35.92C245.63 35.3333 244.837 35.04 243.93 35.04ZM255.65 44.24C254.143 44.24 252.89 43.74 251.89 42.74C250.89 41.7267 250.39 40.48 250.39 39C250.39 37.52 250.89 36.28 251.89 35.28C252.89 34.2667 254.143 33.76 255.65 33.76C256.637 33.76 257.523 34 258.31 34.48C259.097 34.9467 259.67 35.58 260.03 36.38L258.95 37C258.683 36.4 258.25 35.9267 257.65 35.58C257.063 35.22 256.397 35.04 255.65 35.04C254.543 35.04 253.61 35.4267 252.85 36.2C252.09 36.96 251.71 37.8933 251.71 39C251.71 40.1067 252.09 41.0467 252.85 41.82C253.61 42.58 254.543 42.96 255.65 42.96C256.397 42.96 257.063 42.7867 257.65 42.44C258.237 42.08 258.697 41.6 259.03 41L260.13 41.64C259.717 42.44 259.11 43.0733 258.31 43.54C257.51 44.0067 256.623 44.24 255.65 44.24ZM269.03 34V44H267.71V40.16H265.99L262.91 44H261.23L264.39 40.12C263.59 40 262.93 39.6667 262.41 39.12C261.89 38.5733 261.63 37.9 261.63 37.1C261.63 36.1933 261.95 35.4533 262.59 34.88C263.243 34.2933 264.036 34 264.97 34H269.03ZM264.97 38.92H267.71V35.28H264.97C264.41 35.28 263.93 35.4467 263.53 35.78C263.143 36.1133 262.95 36.5533 262.95 37.1C262.95 37.6467 263.143 38.0867 263.53 38.42C263.93 38.7533 264.41 38.92 264.97 38.92ZM279.03 34V35.28H275.49V44H274.17V35.28H270.63V34H279.03ZM288.718 44H286.958L281.958 39.18V44H280.638V34H281.958V38.42L286.718 34H288.518L283.358 38.8L288.718 44ZM297.801 34H298.921V44H297.601V36.3L291.641 44H290.521V34H291.841V41.7L297.801 34ZM303.913 42.3L302.713 46.8H301.513L302.313 42.3H303.913ZM316.137 33.76C317.617 33.76 318.811 34.2867 319.717 35.34C320.637 36.38 321.097 37.6133 321.097 39.04C321.097 39.1867 321.084 39.3933 321.057 39.66H312.277C312.411 40.6733 312.837 41.48 313.557 42.08C314.291 42.6667 315.191 42.96 316.257 42.96C317.017 42.96 317.671 42.8067 318.217 42.5C318.777 42.18 319.197 41.7667 319.477 41.26L320.637 41.94C320.197 42.6467 319.597 43.2067 318.837 43.62C318.077 44.0333 317.211 44.24 316.237 44.24C314.664 44.24 313.384 43.7467 312.397 42.76C311.411 41.7733 310.917 40.52 310.917 39C310.917 37.5067 311.404 36.26 312.377 35.26C313.351 34.26 314.604 33.76 316.137 33.76ZM316.137 35.04C315.097 35.04 314.224 35.3533 313.517 35.98C312.824 36.5933 312.411 37.3933 312.277 38.38H319.737C319.604 37.3267 319.197 36.5067 318.517 35.92C317.837 35.3333 317.044 35.04 316.137 35.04ZM327.857 44.24C326.35 44.24 325.097 43.74 324.097 42.74C323.097 41.7267 322.597 40.48 322.597 39C322.597 37.52 323.097 36.28 324.097 35.28C325.097 34.2667 326.35 33.76 327.857 33.76C328.844 33.76 329.73 34 330.517 34.48C331.304 34.9467 331.877 35.58 332.237 36.38L331.157 37C330.89 36.4 330.457 35.9267 329.857 35.58C329.27 35.22 328.604 35.04 327.857 35.04C326.75 35.04 325.817 35.4267 325.057 36.2C324.297 36.96 323.917 37.8933 323.917 39C323.917 40.1067 324.297 41.0467 325.057 41.82C325.817 42.58 326.75 42.96 327.857 42.96C328.604 42.96 329.27 42.7867 329.857 42.44C330.444 42.08 330.904 41.6 331.237 41L332.337 41.64C331.924 42.44 331.317 43.0733 330.517 43.54C329.717 44.0067 328.83 44.24 327.857 44.24ZM342.237 34V44H340.917V35.28H336.397V39.74C336.397 41.4067 336.077 42.5533 335.437 43.18C334.81 43.8067 333.943 44.08 332.837 44V42.76C333.597 42.84 334.157 42.66 334.517 42.22C334.89 41.78 335.077 40.9533 335.077 39.74V34H342.237ZM352.313 34H353.433V44H352.113V36.3L346.153 44H345.033V34H346.353V41.7L352.313 34ZM368.304 34H369.624V44H368.304V39.64H362.544V44H361.224V34H362.544V38.36H368.304V34ZM377.036 33.76C378.516 33.76 379.709 34.2867 380.616 35.34C381.536 36.38 381.996 37.6133 381.996 39.04C381.996 39.1867 381.982 39.3933 381.956 39.66H373.176C373.309 40.6733 373.736 41.48 374.456 42.08C375.189 42.6667 376.089 42.96 377.156 42.96C377.916 42.96 378.569 42.8067 379.116 42.5C379.676 42.18 380.096 41.7667 380.376 41.26L381.536 41.94C381.096 42.6467 380.496 43.2067 379.736 43.62C378.976 44.0333 378.109 44.24 377.136 44.24C375.562 44.24 374.282 43.7467 373.296 42.76C372.309 41.7733 371.816 40.52 371.816 39C371.816 37.5067 372.302 36.26 373.276 35.26C374.249 34.26 375.502 33.76 377.036 33.76ZM377.036 35.04C375.996 35.04 375.122 35.3533 374.416 35.98C373.722 36.5933 373.309 37.3933 373.176 38.38H380.636C380.502 37.3267 380.096 36.5067 379.416 35.92C378.736 35.3333 377.942 35.04 377.036 35.04ZM393.755 44.24C392.249 44.24 390.995 43.74 389.995 42.74C388.995 41.7267 388.495 40.48 388.495 39C388.495 37.52 388.995 36.28 389.995 35.28C390.995 34.2667 392.249 33.76 393.755 33.76C394.742 33.76 395.629 34 396.415 34.48C397.202 34.9467 397.775 35.58 398.135 36.38L397.055 37C396.789 36.4 396.355 35.9267 395.755 35.58C395.169 35.22 394.502 35.04 393.755 35.04C392.649 35.04 391.715 35.4267 390.955 36.2C390.195 36.96 389.815 37.8933 389.815 39C389.815 40.1067 390.195 41.0467 390.955 41.82C391.715 42.58 392.649 42.96 393.755 42.96C394.502 42.96 395.169 42.7867 395.755 42.44C396.342 42.08 396.802 41.6 397.135 41L398.235 41.64C397.822 42.44 397.215 43.0733 396.415 43.54C395.615 44.0067 394.729 44.24 393.755 44.24ZM408.413 42.74C407.399 43.74 406.159 44.24 404.693 44.24C403.226 44.24 401.979 43.74 400.953 42.74C399.939 41.7267 399.433 40.48 399.433 39C399.433 37.52 399.939 36.28 400.953 35.28C401.979 34.2667 403.226 33.76 404.693 33.76C406.159 33.76 407.399 34.2667 408.413 35.28C409.439 36.28 409.953 37.52 409.953 39C409.953 40.48 409.439 41.7267 408.413 42.74ZM401.893 41.82C402.653 42.58 403.586 42.96 404.693 42.96C405.799 42.96 406.733 42.58 407.493 41.82C408.253 41.0467 408.633 40.1067 408.633 39C408.633 37.8933 408.253 36.96 407.493 36.2C406.733 35.4267 405.799 35.04 404.693 35.04C403.586 35.04 402.653 35.4267 401.893 36.2C401.133 36.96 400.753 37.8933 400.753 39C400.753 40.1067 401.133 41.0467 401.893 41.82ZM418.971 34V35.28H415.431V44H414.111V35.28H410.571V34H418.971ZM427.66 34H428.98V44H427.66V39.64H421.9V44H420.58V34H421.9V38.36H427.66V34ZM439.051 34H440.171V44H438.851V36.3L432.891 44H431.771V34H433.091V41.7L439.051 34ZM9.8 62V72H8.48V63.28H2.72V72H1.4V62H9.8ZM17.9514 61.76C19.3781 61.76 20.5914 62.2667 21.5914 63.28C22.6047 64.2933 23.1114 65.5333 23.1114 67C23.1114 68.4667 22.6047 69.7067 21.5914 70.72C20.5914 71.7333 19.3781 72.24 17.9514 72.24C16.1781 72.24 14.8314 71.5067 13.9114 70.04V76H12.5914V62H13.9114V63.96C14.8314 62.4933 16.1781 61.76 17.9514 61.76ZM15.0514 69.82C15.8114 70.58 16.7447 70.96 17.8514 70.96C18.9581 70.96 19.8914 70.58 20.6514 69.82C21.4114 69.0467 21.7914 68.1067 21.7914 67C21.7914 65.8933 21.4114 64.96 20.6514 64.2C19.8914 63.4267 18.9581 63.04 17.8514 63.04C16.7447 63.04 15.8114 63.4267 15.0514 64.2C14.2914 64.96 13.9114 65.8933 13.9114 67C13.9114 68.1067 14.2914 69.0467 15.0514 69.82ZM33.6863 70.74C32.6729 71.74 31.4329 72.24 29.9663 72.24C28.4996 72.24 27.2529 71.74 26.2263 70.74C25.2129 69.7267 24.7063 68.48 24.7063 67C24.7063 65.52 25.2129 64.28 26.2263 63.28C27.2529 62.2667 28.4996 61.76 29.9663 61.76C31.4329 61.76 32.6729 62.2667 33.6863 63.28C34.7129 64.28 35.2263 65.52 35.2263 67C35.2263 68.48 34.7129 69.7267 33.6863 70.74ZM27.1663 69.82C27.9263 70.58 28.8596 70.96 29.9663 70.96C31.0729 70.96 32.0063 70.58 32.7663 69.82C33.5263 69.0467 33.9062 68.1067 33.9062 67C33.9062 65.8933 33.5263 64.96 32.7663 64.2C32.0063 63.4267 31.0729 63.04 29.9663 63.04C28.8596 63.04 27.9263 63.4267 27.1663 64.2C26.4063 64.96 26.0263 65.8933 26.0263 67C26.0263 68.1067 26.4063 69.0467 27.1663 69.82ZM47.1952 63.44C48.1552 64.4133 48.6352 65.6 48.6352 67C48.6352 68.4 48.1552 69.5867 47.1952 70.56C46.2352 71.5333 44.9685 72.0867 43.3952 72.22V76H42.0752V72.22C40.5018 72.0867 39.2352 71.5333 38.2752 70.56C37.3152 69.5867 36.8352 68.4 36.8352 67C36.8352 65.6 37.3152 64.4133 38.2752 63.44C39.2352 62.4667 40.5018 61.9133 42.0752 61.78V58H43.3952V61.78C44.9685 61.9133 46.2352 62.4667 47.1952 63.44ZM39.2152 64.36C38.5085 65.08 38.1552 65.96 38.1552 67C38.1552 68.04 38.5085 68.9267 39.2152 69.66C39.9218 70.38 40.8752 70.8 42.0752 70.92V63.08C40.8752 63.2 39.9218 63.6267 39.2152 64.36ZM43.3952 70.92C44.5952 70.8 45.5485 70.38 46.2552 69.66C46.9618 68.9267 47.3152 68.04 47.3152 67C47.3152 65.96 46.9618 65.08 46.2552 64.36C45.5485 63.6267 44.5952 63.2 43.3952 63.08V70.92ZM55.4536 61.76C56.9336 61.76 58.1269 62.2867 59.0336 63.34C59.9536 64.38 60.4136 65.6133 60.4136 67.04C60.4136 67.1867 60.4003 67.3933 60.3736 67.66H51.5936C51.7269 68.6733 52.1536 69.48 52.8736 70.08C53.6069 70.6667 54.5069 70.96 55.5736 70.96C56.3336 70.96 56.9869 70.8067 57.5336 70.5C58.0936 70.18 58.5136 69.7667 58.7936 69.26L59.9536 69.94C59.5136 70.6467 58.9136 71.2067 58.1536 71.62C57.3936 72.0333 56.5269 72.24 55.5536 72.24C53.9803 72.24 52.7003 71.7467 51.7136 70.76C50.7269 69.7733 50.2336 68.52 50.2336 67C50.2336 65.5067 50.7203 64.26 51.6936 63.26C52.6669 62.26 53.9203 61.76 55.4536 61.76ZM55.4536 63.04C54.4136 63.04 53.5403 63.3533 52.8336 63.98C52.1403 64.5933 51.7269 65.3933 51.5936 66.38H59.0536C58.9203 65.3267 58.5136 64.5067 57.8336 63.92C57.1536 63.3333 56.3603 63.04 55.4536 63.04ZM67.1733 72.24C65.6666 72.24 64.4133 71.74 63.4133 70.74C62.4133 69.7267 61.9133 68.48 61.9133 67C61.9133 65.52 62.4133 64.28 63.4133 63.28C64.4133 62.2667 65.6666 61.76 67.1733 61.76C68.1599 61.76 69.0466 62 69.8333 62.48C70.6199 62.9467 71.1933 63.58 71.5533 64.38L70.4733 65C70.2066 64.4 69.7733 63.9267 69.1733 63.58C68.5866 63.22 67.9199 63.04 67.1733 63.04C66.0666 63.04 65.1333 63.4267 64.3733 64.2C63.6133 64.96 63.2333 65.8933 63.2333 67C63.2333 68.1067 63.6133 69.0467 64.3733 69.82C65.1333 70.58 66.0666 70.96 67.1733 70.96C67.9199 70.96 68.5866 70.7867 69.1733 70.44C69.7599 70.08 70.2199 69.6 70.5533 69L71.6533 69.64C71.2399 70.44 70.6333 71.0733 69.8333 71.54C69.0333 72.0067 68.1466 72.24 67.1733 72.24ZM78.1108 72.24C76.6041 72.24 75.3508 71.74 74.3508 70.74C73.3508 69.7267 72.8508 68.48 72.8508 67C72.8508 65.52 73.3508 64.28 74.3508 63.28C75.3508 62.2667 76.6041 61.76 78.1108 61.76C79.0974 61.76 79.9841 62 80.7708 62.48C81.5574 62.9467 82.1308 63.58 82.4908 64.38L81.4108 65C81.1441 64.4 80.7108 63.9267 80.1108 63.58C79.5241 63.22 78.8574 63.04 78.1108 63.04C77.0041 63.04 76.0708 63.4267 75.3108 64.2C74.5508 64.96 74.1708 65.8933 74.1708 67C74.1708 68.1067 74.5508 69.0467 75.3108 69.82C76.0708 70.58 77.0041 70.96 78.1108 70.96C78.8574 70.96 79.5241 70.7867 80.1108 70.44C80.6974 70.08 81.1574 69.6 81.4908 69L82.5908 69.64C82.1774 70.44 81.5708 71.0733 80.7708 71.54C79.9708 72.0067 79.0841 72.24 78.1108 72.24ZM91.7659 62H92.8859V72H91.5659V64.3L85.6059 72H84.4859V62H85.8059V69.7L91.7659 62ZM104.057 70.74C103.044 71.74 101.804 72.24 100.337 72.24C98.8707 72.24 97.624 71.74 96.5973 70.74C95.584 69.7267 95.0773 68.48 95.0773 67C95.0773 65.52 95.584 64.28 96.5973 63.28C97.624 62.2667 98.8707 61.76 100.337 61.76C101.804 61.76 103.044 62.2667 104.057 63.28C105.084 64.28 105.597 65.52 105.597 67C105.597 68.48 105.084 69.7267 104.057 70.74ZM97.5373 69.82C98.2973 70.58 99.2307 70.96 100.337 70.96C101.444 70.96 102.377 70.58 103.137 69.82C103.897 69.0467 104.277 68.1067 104.277 67C104.277 65.8933 103.897 64.96 103.137 64.2C102.377 63.4267 101.444 63.04 100.337 63.04C99.2307 63.04 98.2973 63.4267 97.5373 64.2C96.7773 64.96 96.3973 65.8933 96.3973 67C96.3973 68.1067 96.7773 69.0467 97.5373 69.82ZM114.886 62H116.206V72H114.886V67.64H109.126V72H107.806V62H109.126V66.36H114.886V62ZM127.598 62H128.918V72H127.598V70.04C126.678 71.5067 125.331 72.24 123.558 72.24C122.131 72.24 120.911 71.7333 119.898 70.72C118.898 69.7067 118.398 68.4667 118.398 67C118.398 65.5333 118.898 64.2933 119.898 63.28C120.911 62.2667 122.131 61.76 123.558 61.76C125.331 61.76 126.678 62.4933 127.598 63.96V62ZM120.858 69.82C121.618 70.58 122.551 70.96 123.658 70.96C124.764 70.96 125.698 70.58 126.458 69.82C127.218 69.0467 127.598 68.1067 127.598 67C127.598 65.8933 127.218 64.96 126.458 64.2C125.698 63.4267 124.764 63.04 123.658 63.04C122.551 63.04 121.618 63.4267 120.858 64.2C120.098 64.96 119.718 65.8933 119.718 67C119.718 68.1067 120.098 69.0467 120.858 69.82ZM139.913 62V72H138.593V63.28H134.073V67.74C134.073 69.4067 133.753 70.5533 133.113 71.18C132.486 71.8067 131.619 72.08 130.513 72V70.76C131.273 70.84 131.833 70.66 132.193 70.22C132.566 69.78 132.753 68.9533 132.753 67.74V62H139.913ZM146.769 65.8C147.702 65.8 148.489 66.0933 149.129 66.68C149.782 67.2533 150.109 67.9933 150.109 68.9C150.109 69.8067 149.782 70.5533 149.129 71.14C148.489 71.7133 147.702 72 146.769 72H142.709V62H144.029V65.8H146.769ZM146.769 70.72C147.329 70.72 147.802 70.5533 148.189 70.22C148.589 69.8867 148.789 69.4467 148.789 68.9C148.789 68.3533 148.589 67.9133 148.189 67.58C147.802 67.2467 147.329 67.08 146.769 67.08H144.029V70.72H146.769ZM159.183 62H160.503V72H159.183V67.64H153.423V72H152.103V62H153.423V66.36H159.183V62ZM167.355 65.8C168.288 65.8 169.075 66.0933 169.715 66.68C170.368 67.2533 170.695 67.9933 170.695 68.9C170.695 69.8067 170.368 70.5533 169.715 71.14C169.075 71.7133 168.288 72 167.355 72H163.295V62H164.615V65.8H167.355ZM172.095 62H173.415V72H172.095V62ZM167.355 70.72C167.915 70.72 168.388 70.5533 168.775 70.22C169.175 69.8867 169.375 69.4467 169.375 68.9C169.375 68.3533 169.175 67.9133 168.775 67.58C168.388 67.2467 167.915 67.08 167.355 67.08H164.615V70.72H167.355ZM184.624 72H183.044L179.924 67.88L176.804 72H175.224L179.144 66.82L175.484 62H177.064L179.924 65.78L182.784 62H184.364L180.724 66.82L184.624 72ZM199.5 72H197.74L192.74 67.18V72H191.42V62H192.74V66.42L197.5 62H199.3L194.14 66.8L199.5 72ZM208.112 62H209.512L205.232 72.92C204.845 73.9067 204.292 74.68 203.572 75.24C202.865 75.8133 202.072 76.0667 201.192 76V74.76C202.392 74.8933 203.305 74.2 203.932 72.68L204.192 72.06L199.712 62H201.112L204.872 70.38L208.112 62ZM216.467 61.76C217.894 61.76 219.107 62.2667 220.107 63.28C221.12 64.2933 221.627 65.5333 221.627 67C221.627 68.4667 221.12 69.7067 220.107 70.72C219.107 71.7333 217.894 72.24 216.467 72.24C214.694 72.24 213.347 71.5067 212.427 70.04V76H211.107V62H212.427V63.96C213.347 62.4933 214.694 61.76 216.467 61.76ZM213.567 69.82C214.327 70.58 215.26 70.96 216.367 70.96C217.474 70.96 218.407 70.58 219.167 69.82C219.927 69.0467 220.307 68.1067 220.307 67C220.307 65.8933 219.927 64.96 219.167 64.2C218.407 63.4267 217.474 63.04 216.367 63.04C215.26 63.04 214.327 63.4267 213.567 64.2C212.807 64.96 212.427 65.8933 212.427 67C212.427 68.1067 212.807 69.0467 213.567 69.82ZM228.482 72.24C226.975 72.24 225.722 71.74 224.722 70.74C223.722 69.7267 223.222 68.48 223.222 67C223.222 65.52 223.722 64.28 224.722 63.28C225.722 62.2667 226.975 61.76 228.482 61.76C229.469 61.76 230.355 62 231.142 62.48C231.929 62.9467 232.502 63.58 232.862 64.38L231.782 65C231.515 64.4 231.082 63.9267 230.482 63.58C229.895 63.22 229.229 63.04 228.482 63.04C227.375 63.04 226.442 63.4267 225.682 64.2C224.922 64.96 224.542 65.8933 224.542 67C224.542 68.1067 224.922 69.0467 225.682 69.82C226.442 70.58 227.375 70.96 228.482 70.96C229.229 70.96 229.895 70.7867 230.482 70.44C231.069 70.08 231.529 69.6 231.862 69L232.962 69.64C232.549 70.44 231.942 71.0733 231.142 71.54C230.342 72.0067 229.455 72.24 228.482 72.24ZM243.139 70.74C242.126 71.74 240.886 72.24 239.419 72.24C237.953 72.24 236.706 71.74 235.679 70.74C234.666 69.7267 234.159 68.48 234.159 67C234.159 65.52 234.666 64.28 235.679 63.28C236.706 62.2667 237.953 61.76 239.419 61.76C240.886 61.76 242.126 62.2667 243.139 63.28C244.166 64.28 244.679 65.52 244.679 67C244.679 68.48 244.166 69.7267 243.139 70.74ZM236.619 69.82C237.379 70.58 238.313 70.96 239.419 70.96C240.526 70.96 241.459 70.58 242.219 69.82C242.979 69.0467 243.359 68.1067 243.359 67C243.359 65.8933 242.979 64.96 242.219 64.2C241.459 63.4267 240.526 63.04 239.419 63.04C238.313 63.04 237.379 63.4267 236.619 64.2C235.859 64.96 235.479 65.8933 235.479 67C235.479 68.1067 235.859 69.0467 236.619 69.82ZM253.248 66.86C254.342 67.26 254.888 68.04 254.888 69.2C254.888 70.0133 254.615 70.6867 254.068 71.22C253.535 71.74 252.762 72 251.748 72H246.888V62H251.348C252.322 62 253.075 62.2533 253.608 62.76C254.142 63.2533 254.408 63.8933 254.408 64.68C254.408 65.68 254.022 66.4067 253.248 66.86ZM251.348 63.28H248.208V66.32H251.348C252.508 66.32 253.088 65.8 253.088 64.76C253.088 64.2933 252.935 63.9333 252.628 63.68C252.335 63.4133 251.908 63.28 251.348 63.28ZM251.748 70.72C252.335 70.72 252.782 70.58 253.088 70.3C253.408 70.02 253.568 69.6267 253.568 69.12C253.568 68.6533 253.408 68.2867 253.088 68.02C252.782 67.74 252.335 67.6 251.748 67.6H248.208V70.72H251.748ZM258.373 71.88C258.16 72.0933 257.9 72.2 257.593 72.2C257.286 72.2 257.026 72.0933 256.813 71.88C256.6 71.6667 256.493 71.4067 256.493 71.1C256.493 70.7933 256.6 70.5333 256.813 70.32C257.026 70.1067 257.286 70 257.593 70C257.9 70 258.16 70.1067 258.373 70.32C258.586 70.5333 258.693 70.7933 258.693 71.1C258.693 71.4067 258.586 71.6667 258.373 71.88ZM276.502 58V72H275.102V59.32H267.902V72H266.502V58H276.502ZM287.885 70.74C286.872 71.74 285.632 72.24 284.165 72.24C282.699 72.24 281.452 71.74 280.425 70.74C279.412 69.7267 278.905 68.48 278.905 67C278.905 65.52 279.412 64.28 280.425 63.28C281.452 62.2667 282.699 61.76 284.165 61.76C285.632 61.76 286.872 62.2667 287.885 63.28C288.912 64.28 289.425 65.52 289.425 67C289.425 68.48 288.912 69.7267 287.885 70.74ZM281.365 69.82C282.125 70.58 283.059 70.96 284.165 70.96C285.272 70.96 286.205 70.58 286.965 69.82C287.725 69.0467 288.105 68.1067 288.105 67C288.105 65.8933 287.725 64.96 286.965 64.2C286.205 63.4267 285.272 63.04 284.165 63.04C283.059 63.04 282.125 63.4267 281.365 64.2C280.605 64.96 280.225 65.8933 280.225 67C280.225 68.1067 280.605 69.0467 281.365 69.82ZM301.434 62V72H300.114V64.02L296.614 69.7H296.454L292.954 64.02V72H291.634V62H293.154L296.534 67.48L299.914 62H301.434ZM312.612 70.74C311.599 71.74 310.359 72.24 308.892 72.24C307.425 72.24 306.179 71.74 305.152 70.74C304.139 69.7267 303.632 68.48 303.632 67C303.632 65.52 304.139 64.28 305.152 63.28C306.179 62.2667 307.425 61.76 308.892 61.76C310.359 61.76 311.599 62.2667 312.612 63.28C313.639 64.28 314.152 65.52 314.152 67C314.152 68.48 313.639 69.7267 312.612 70.74ZM306.092 69.82C306.852 70.58 307.785 70.96 308.892 70.96C309.999 70.96 310.932 70.58 311.692 69.82C312.452 69.0467 312.832 68.1067 312.832 67C312.832 65.8933 312.452 64.96 311.692 64.2C310.932 63.4267 309.999 63.04 308.892 63.04C307.785 63.04 306.852 63.4267 306.092 64.2C305.332 64.96 304.952 65.8933 304.952 67C304.952 68.1067 305.332 69.0467 306.092 69.82ZM322.761 62V63.28H317.681V72H316.361V62H322.761ZM331.963 62V72H330.643V63.28H326.123V67.74C326.123 69.4067 325.803 70.5533 325.163 71.18C324.537 71.8067 323.67 72.08 322.563 72V70.76C323.323 70.84 323.883 70.66 324.243 70.22C324.617 69.78 324.803 68.9533 324.803 67.74V62H331.963ZM342.039 62H343.159V72H341.839V64.3L335.879 72H334.759V62H336.079V69.7L342.039 62ZM359.151 62V72H357.831V63.28H353.311V67.74C353.311 69.4067 352.991 70.5533 352.351 71.18C351.724 71.8067 350.857 72.08 349.751 72V70.76C350.511 70.84 351.071 70.66 351.431 70.22C351.804 69.78 351.991 68.9533 351.991 67.74V62H359.151ZM369.227 62H370.347V72H369.027V64.3L363.067 72H361.947V62H363.267V69.7L369.227 62ZM387.938 62V72H386.618V64.02L383.118 69.7H382.958L379.458 64.02V72H378.138V62H379.658L383.038 67.48L386.418 62H387.938ZM397.816 62H399.136V72H397.816V67.64H392.056V72H390.736V62H392.056V66.36H397.816V62ZM406.547 61.76C408.027 61.76 409.221 62.2867 410.127 63.34C411.047 64.38 411.507 65.6133 411.507 67.04C411.507 67.1867 411.494 67.3933 411.467 67.66H402.687C402.821 68.6733 403.247 69.48 403.967 70.08C404.701 70.6667 405.601 70.96 406.667 70.96C407.427 70.96 408.081 70.8067 408.627 70.5C409.187 70.18 409.607 69.7667 409.887 69.26L411.047 69.94C410.607 70.6467 410.007 71.2067 409.247 71.62C408.487 72.0333 407.621 72.24 406.647 72.24C405.074 72.24 403.794 71.7467 402.807 70.76C401.821 69.7733 401.327 68.52 401.327 67C401.327 65.5067 401.814 64.26 402.787 63.26C403.761 62.26 405.014 61.76 406.547 61.76ZM406.547 63.04C405.507 63.04 404.634 63.3533 403.927 63.98C403.234 64.5933 402.821 65.3933 402.687 66.38H410.147C410.014 65.3267 409.607 64.5067 408.927 63.92C408.247 63.3333 407.454 63.04 406.547 63.04ZM422.167 61.76C423.674 61.76 424.887 62.26 425.807 63.26C426.727 64.2467 427.187 65.4933 427.187 67C427.187 68.5067 426.72 69.76 425.787 70.76C424.867 71.7467 423.647 72.24 422.127 72.24C421.047 72.24 420.107 72.0067 419.307 71.54C418.52 71.06 417.954 70.4133 417.607 69.6L418.747 68.94C418.974 69.5533 419.38 70.0467 419.967 70.42C420.554 70.78 421.274 70.96 422.127 70.96C423.127 70.96 423.96 70.6533 424.627 70.04C425.294 69.4133 425.694 68.6133 425.827 67.64H420.847V66.36H425.827C425.707 65.3867 425.314 64.5933 424.647 63.98C423.994 63.3533 423.167 63.04 422.167 63.04C421.407 63.04 420.734 63.22 420.147 63.58C419.56 63.94 419.127 64.4267 418.847 65.04L417.687 64.38C418.087 63.5667 418.68 62.9267 419.467 62.46C420.267 61.9933 421.167 61.76 422.167 61.76ZM436.198 62V63.28H432.658V72H431.338V63.28H427.798V62H436.198ZM445.086 62H446.206V72H444.886V64.3L438.926 72H437.806V62H439.126V69.7L445.086 62ZM6.56 94.86C7.72 95.3 8.3 96.1 8.3 97.26C8.3 98.0867 7.97333 98.7933 7.32 99.38C6.68 99.9533 5.76 100.24 4.56 100.24C2.54667 100.24 1.22667 99.44 0.6 97.84L1.72 97.18C2.13333 98.3667 3.08 98.96 4.56 98.96C5.33333 98.96 5.92667 98.7933 6.34 98.46C6.76667 98.1267 6.98 97.7 6.98 97.18C6.98 96.7133 6.80667 96.3333 6.46 96.04C6.11333 95.7467 5.64667 95.6 5.06 95.6H3.6V94.32H4.66C5.23333 94.32 5.68 94.18 6 93.9C6.33333 93.6067 6.5 93.2067 6.5 92.7C6.5 92.22 6.30667 91.8267 5.92 91.52C5.53333 91.2 5.01333 91.04 4.36 91.04C3.10667 91.04 2.27333 91.54 1.86 92.54L0.76 91.9C1.42667 90.4733 2.62667 89.76 4.36 89.76C5.41333 89.76 6.25333 90.04 6.88 90.6C7.50667 91.1467 7.82 91.82 7.82 92.62C7.82 93.6467 7.4 94.3933 6.56 94.86ZM17.3863 90H18.7063V100H17.3863V95.64H11.6263V100H10.3063V90H11.6263V94.36H17.3863V90ZM30.0977 90H31.4177V100H30.0977V98.04C29.1777 99.5067 27.831 100.24 26.0577 100.24C24.631 100.24 23.411 99.7333 22.3977 98.72C21.3977 97.7067 20.8977 96.4667 20.8977 95C20.8977 93.5333 21.3977 92.2933 22.3977 91.28C23.411 90.2667 24.631 89.76 26.0577 89.76C27.831 89.76 29.1777 90.4933 30.0977 91.96V90ZM23.3577 97.82C24.1177 98.58 25.051 98.96 26.1577 98.96C27.2643 98.96 28.1977 98.58 28.9577 97.82C29.7177 97.0467 30.0977 96.1067 30.0977 95C30.0977 93.8933 29.7177 92.96 28.9577 92.2C28.1977 91.4267 27.2643 91.04 26.1577 91.04C25.051 91.04 24.1177 91.4267 23.3577 92.2C22.5977 92.96 22.2177 93.8933 22.2177 95C22.2177 96.1067 22.5977 97.0467 23.3577 97.82ZM41.2925 90H42.6125V100H41.2925V95.64H35.5325V100H34.2125V90H35.5325V94.36H41.2925V90ZM52.6839 90H53.8039V100H52.4839V92.3L46.5239 100H45.4039V90H46.7239V97.7L52.6839 90ZM63.7953 90V100H62.4753V96.16H60.7553L57.6753 100H55.9953L59.1553 96.12C58.3553 96 57.6953 95.6667 57.1753 95.12C56.6553 94.5733 56.3953 93.9 56.3953 93.1C56.3953 92.1933 56.7153 91.4533 57.3553 90.88C58.0086 90.2933 58.802 90 59.7353 90H63.7953ZM59.7353 94.92H62.4753V91.28H59.7353C59.1753 91.28 58.6953 91.4467 58.2953 91.78C57.9086 92.1133 57.7153 92.5533 57.7153 93.1C57.7153 93.6467 57.9086 94.0867 58.2953 94.42C58.6953 94.7533 59.1753 94.92 59.7353 94.92ZM69.3953 96.2C69.3953 95.5467 69.5286 94.9533 69.7953 94.42C70.062 93.8733 70.382 93.4133 70.7553 93.04C71.1286 92.6667 71.502 92.3067 71.8753 91.96C72.2486 91.6133 72.5686 91.2333 72.8353 90.82C73.102 90.3933 73.2353 89.94 73.2353 89.46C73.2353 88.6867 72.9686 88.1067 72.4353 87.72C71.9153 87.32 71.242 87.12 70.4153 87.12C68.7753 87.12 67.762 87.7933 67.3753 89.14L66.1953 88.48C66.502 87.5867 67.0353 86.9133 67.7953 86.46C68.5686 85.9933 69.442 85.76 70.4153 85.76C71.5886 85.76 72.582 86.0867 73.3953 86.74C74.222 87.38 74.6353 88.2867 74.6353 89.46C74.6353 90.0333 74.502 90.5667 74.2353 91.06C73.9686 91.5533 73.6486 91.9867 73.2753 92.36C72.902 92.72 72.5286 93.08 72.1553 93.44C71.782 93.8 71.462 94.22 71.1953 94.7C70.9286 95.1667 70.7953 95.6667 70.7953 96.2H69.3953ZM70.8753 99.88C70.662 100.093 70.402 100.2 70.0953 100.2C69.7886 100.2 69.5286 100.093 69.3153 99.88C69.102 99.6667 68.9953 99.4067 68.9953 99.1C68.9953 98.7933 69.102 98.5333 69.3153 98.32C69.5286 98.1067 69.7886 98 70.0953 98C70.402 98 70.662 98.1067 70.8753 98.32C71.0886 98.5333 71.1953 98.7933 71.1953 99.1C71.1953 99.4067 71.0886 99.6667 70.8753 99.88ZM91.4398 86H92.8398V100H91.4398V93.46H83.8398V100H82.4398V86H83.8398V92.14H91.4398V86ZM104.434 90H105.754V100H104.434V98.04C103.514 99.5067 102.167 100.24 100.394 100.24C98.9669 100.24 97.7469 99.7333 96.7336 98.72C95.7336 97.7067 95.2336 96.4667 95.2336 95C95.2336 93.5333 95.7336 92.2933 96.7336 91.28C97.7469 90.2667 98.9669 89.76 100.394 89.76C102.167 89.76 103.514 90.4933 104.434 91.96V90ZM97.6936 97.82C98.4536 98.58 99.3869 98.96 100.494 98.96C101.6 98.96 102.534 98.58 103.294 97.82C104.054 97.0467 104.434 96.1067 104.434 95C104.434 93.8933 104.054 92.96 103.294 92.2C102.534 91.4267 101.6 91.04 100.494 91.04C99.3869 91.04 98.4536 91.4267 97.6936 92.2C96.9336 92.96 96.5536 93.8933 96.5536 95C96.5536 96.1067 96.9336 97.0467 97.6936 97.82ZM116.948 90V100H115.628V91.28H109.868V100H108.548V90H116.948ZM125.1 89.76C126.527 89.76 127.74 90.2667 128.74 91.28C129.753 92.2933 130.26 93.5333 130.26 95C130.26 96.4667 129.753 97.7067 128.74 98.72C127.74 99.7333 126.527 100.24 125.1 100.24C123.327 100.24 121.98 99.5067 121.06 98.04V104H119.74V90H121.06V91.96C121.98 90.4933 123.327 89.76 125.1 89.76ZM122.2 97.82C122.96 98.58 123.893 98.96 125 98.96C126.107 98.96 127.04 98.58 127.8 97.82C128.56 97.0467 128.94 96.1067 128.94 95C128.94 93.8933 128.56 92.96 127.8 92.2C127.04 91.4267 126.107 91.04 125 91.04C123.893 91.04 122.96 91.4267 122.2 92.2C121.44 92.96 121.06 93.8933 121.06 95C121.06 96.1067 121.44 97.0467 122.2 97.82ZM139.264 90V100H137.944V96.16H136.224L133.144 100H131.464L134.624 96.12C133.824 96 133.164 95.6667 132.644 95.12C132.124 94.5733 131.864 93.9 131.864 93.1C131.864 92.1933 132.184 91.4533 132.824 90.88C133.477 90.2933 134.271 90 135.204 90H139.264ZM135.204 94.92H137.944V91.28H135.204C134.644 91.28 134.164 91.4467 133.764 91.78C133.377 92.1133 133.184 92.5533 133.184 93.1C133.184 93.6467 133.377 94.0867 133.764 94.42C134.164 94.7533 134.644 94.92 135.204 94.92ZM151.864 90V100H150.544V92.02L147.044 97.7H146.884L143.384 92.02V100H142.064V90H143.584L146.964 95.48L150.344 90H151.864ZM161.862 90H163.262L158.982 100.92C158.595 101.907 158.042 102.68 157.322 103.24C156.615 103.813 155.822 104.067 154.942 104V102.76C156.142 102.893 157.055 102.2 157.682 100.68L157.942 100.06L153.462 90H154.862L158.622 98.38L161.862 90ZM173.397 89.76C174.864 89.76 176.104 90.2667 177.117 91.28C178.144 92.28 178.657 93.52 178.657 95C178.657 96.48 178.144 97.7267 177.117 98.74C176.104 99.74 174.864 100.24 173.397 100.24C172.05 100.24 170.89 99.8067 169.917 98.94C168.957 98.06 168.404 96.96 168.257 95.64H166.177V100H164.857V90H166.177V94.36H168.257C168.404 93.04 168.957 91.9467 169.917 91.08C170.89 90.2 172.05 89.76 173.397 89.76ZM170.597 97.82C171.357 98.58 172.29 98.96 173.397 98.96C174.504 98.96 175.437 98.58 176.197 97.82C176.957 97.0467 177.337 96.1067 177.337 95C177.337 93.8933 176.957 92.96 176.197 92.2C175.437 91.4267 174.504 91.04 173.397 91.04C172.29 91.04 171.357 91.4267 170.597 92.2C169.837 92.96 169.457 93.8933 169.457 95C169.457 96.1067 169.837 97.0467 170.597 97.82ZM186.053 94.46V93.18H198.053V94.46H186.053ZM214.448 90V100H213.128V91.28H207.368V100H206.048V90H214.448ZM225.62 98.74C224.607 99.74 223.367 100.24 221.9 100.24C220.433 100.24 219.187 99.74 218.16 98.74C217.147 97.7267 216.64 96.48 216.64 95C216.64 93.52 217.147 92.28 218.16 91.28C219.187 90.2667 220.433 89.76 221.9 89.76C223.367 89.76 224.607 90.2667 225.62 91.28C226.647 92.28 227.16 93.52 227.16 95C227.16 96.48 226.647 97.7267 225.62 98.74ZM219.1 97.82C219.86 98.58 220.793 98.96 221.9 98.96C223.007 98.96 223.94 98.58 224.7 97.82C225.46 97.0467 225.84 96.1067 225.84 95C225.84 93.8933 225.46 92.96 224.7 92.2C223.94 91.4267 223.007 91.04 221.9 91.04C220.793 91.04 219.86 91.4267 219.1 92.2C218.34 92.96 217.96 93.8933 217.96 95C217.96 96.1067 218.34 97.0467 219.1 97.82ZM235.653 90H236.973V100H235.653V96.2C234.88 96.6 233.927 96.8 232.793 96.8C231.487 96.8 230.487 96.5 229.793 95.9C229.113 95.2867 228.773 94.3867 228.773 93.2V90H230.093V93.2C230.093 94.04 230.313 94.6467 230.753 95.02C231.193 95.38 231.86 95.56 232.753 95.56C233.793 95.56 234.76 95.3667 235.653 94.98V90ZM246.979 90V91.28H243.439V100H242.119V91.28H238.579V90H246.979ZM255.868 90H256.988V100H255.668V92.3L249.708 100H248.588V90H249.908V97.7L255.868 90ZM271.859 90H273.179V100H271.859V95.64H266.099V100H264.779V90H266.099V94.36H271.859V90ZM283.25 90H284.37V100H283.05V92.3L277.09 100H275.97V90H277.29V97.7L283.25 90ZM295.242 100H293.482L288.482 95.18V100H287.162V90H288.482V94.42L293.242 90H295.042L289.882 94.8L295.242 100ZM304.428 98.74C303.415 99.74 302.175 100.24 300.708 100.24C299.242 100.24 297.995 99.74 296.968 98.74C295.955 97.7267 295.448 96.48 295.448 95C295.448 93.52 295.955 92.28 296.968 91.28C297.995 90.2667 299.242 89.76 300.708 89.76C302.175 89.76 303.415 90.2667 304.428 91.28C305.455 92.28 305.968 93.52 305.968 95C305.968 96.48 305.455 97.7267 304.428 98.74ZM297.908 97.82C298.668 98.58 299.602 98.96 300.708 98.96C301.815 98.96 302.748 98.58 303.508 97.82C304.268 97.0467 304.648 96.1067 304.648 95C304.648 93.8933 304.268 92.96 303.508 92.2C302.748 91.4267 301.815 91.04 300.708 91.04C299.602 91.04 298.668 91.4267 297.908 92.2C297.148 92.96 296.768 93.8933 296.768 95C296.768 96.1067 297.148 97.0467 297.908 97.82ZM314.577 90V91.28H309.497V100H308.177V90H314.577ZM323.98 98.72H325.38V102.68H324.06V100H315.9V102.68H314.58V98.72H315.8C316.48 97.8267 316.82 96.5667 316.82 94.94V90H323.98V98.72ZM317.4 98.72H322.66V91.28H318.14V94.94C318.14 96.4733 317.893 97.7333 317.4 98.72ZM335.586 90H336.906V100H335.586V98.04C334.666 99.5067 333.319 100.24 331.546 100.24C330.119 100.24 328.899 99.7333 327.886 98.72C326.886 97.7067 326.386 96.4667 326.386 95C326.386 93.5333 326.886 92.2933 327.886 91.28C328.899 90.2667 330.119 89.76 331.546 89.76C333.319 89.76 334.666 90.4933 335.586 91.96V90ZM328.846 97.82C329.606 98.58 330.539 98.96 331.646 98.96C332.753 98.96 333.686 98.58 334.446 97.82C335.206 97.0467 335.586 96.1067 335.586 95C335.586 93.8933 335.206 92.96 334.446 92.2C333.686 91.4267 332.753 91.04 331.646 91.04C330.539 91.04 329.606 91.4267 328.846 92.2C328.086 92.96 327.706 93.8933 327.706 95C327.706 96.1067 328.086 97.0467 328.846 97.82ZM341.381 99.88C341.167 100.093 340.907 100.2 340.601 100.2C340.294 100.2 340.034 100.093 339.821 99.88C339.607 99.6667 339.501 99.4067 339.501 99.1C339.501 98.7933 339.607 98.5333 339.821 98.32C340.034 98.1067 340.294 98 340.601 98C340.907 98 341.167 98.1067 341.381 98.32C341.594 98.5333 341.701 98.7933 341.701 99.1C341.701 99.4067 341.594 99.6667 341.381 99.88Z" fill="black"/>
<path id="quote_3" d="M4.53297 40.1975C6.36447 37.8436 8.15018 34.5844 9.89011 30.4198C11.63 26.1646 12.4542 22.2716 12.3626 18.7407C11.5385 19.0123 10.5769 19.1481 9.47802 19.1481C6.82234 19.1481 4.57875 18.4239 2.74725 16.9753C0.915751 15.4362 0 13.1728 0 10.1852C0 7.28806 0.915751 4.88889 2.74725 2.98765C4.67033 0.995883 7.14286 0 10.1648 0C14.1026 0 17.1245 1.35802 19.2308 4.07408C21.4286 6.69959 22.5275 10.0947 22.5275 14.2593C22.5275 18.6955 21.4286 23.4938 19.2308 28.6543C17.1245 33.8148 14.011 38.93 9.89011 44L4.53297 40.1975ZM32.0055 40.1975C33.837 37.8436 35.6227 34.5844 37.3626 30.4198C39.1026 26.1646 39.9267 22.2716 39.8352 18.7407C39.011 19.0123 38.0494 19.1481 36.9506 19.1481C34.2949 19.1481 32.0513 18.4239 30.2198 16.9753C28.3883 15.4362 27.4725 13.1728 27.4725 10.1852C27.4725 7.28806 28.3883 4.88889 30.2198 2.98765C32.1429 0.995883 34.6154 0 37.6374 0C41.5751 0 44.5971 1.35802 46.7033 4.07408C48.9011 6.69959 50 10.0947 50 14.2593C50 18.6955 48.9011 23.4938 46.7033 28.6543C44.5971 33.8148 41.4835 38.93 37.3626 44L32.0055 40.1975Z" fill="#0A4B6F"/>
</g>
</g>
</g>
<defs>
<clipPath id="clip0_0_1">
<rect width="1440" height="10608" fill="white" transform="translate(-837 -925)"/>
</clipPath>
</defs>
</svg>
