<svg width="32" height="32" viewBox="0 0 32 32" fill="none" xmlns="http://www.w3.org/2000/svg">
<g id="whatsapp">
<path id="Vector" d="M16.0002 3.2002C8.9314 3.2002 3.2002 8.9314 3.2002 16.0002C3.2002 18.4015 3.87469 20.6403 5.0252 22.5606L3.31478 28.8002L9.6877 27.1273C11.5515 28.1869 13.7031 28.8002 16.0002 28.8002C23.069 28.8002 28.8002 23.069 28.8002 16.0002C28.8002 8.9314 23.069 3.2002 16.0002 3.2002ZM11.6189 10.0294C11.8269 10.0294 12.0407 10.0281 12.2252 10.0377C12.4535 10.043 12.7019 10.0597 12.9398 10.5856C13.2224 11.2107 13.8379 12.7788 13.9169 12.9377C13.9958 13.0966 14.0517 13.2839 13.9419 13.4919C13.8373 13.7052 13.783 13.8343 13.6294 14.0231C13.4704 14.2066 13.2963 14.4344 13.1523 14.5731C12.9933 14.732 12.8292 14.9063 13.0127 15.2231C13.1962 15.5399 13.8333 16.5785 14.7752 17.4169C15.9859 18.4985 17.0073 18.8308 17.3252 18.9898C17.6431 19.1487 17.8271 19.1239 18.0106 18.9106C18.1994 18.7026 18.8035 17.9889 19.0169 17.671C19.2249 17.3532 19.4372 17.4082 19.7252 17.5127C20.0175 17.6172 21.5761 18.385 21.8939 18.5439C22.2118 18.7029 22.4202 18.7815 22.5002 18.9106C22.5823 19.0439 22.5824 19.6787 22.3189 20.4189C22.0555 21.1581 20.7617 21.873 20.1814 21.9231C19.5958 21.9775 19.0493 22.1863 16.3752 21.1335C13.1496 19.8631 11.1154 16.5594 10.9564 16.346C10.7975 16.138 9.66478 14.6284 9.66478 13.071C9.66478 11.5084 10.4841 10.7431 10.771 10.4252C11.0633 10.1073 11.4056 10.0294 11.6189 10.0294Z" fill="white"/>
</g>
</svg>
